<?xml version="1.0" encoding="UTF-8" standalone="no"?>
<svg
   xmlns:dc="http://purl.org/dc/elements/1.1/"
   xmlns:cc="http://creativecommons.org/ns#"
   xmlns:rdf="http://www.w3.org/1999/02/22-rdf-syntax-ns#"
   xmlns:svg="http://www.w3.org/2000/svg"
   xmlns="http://www.w3.org/2000/svg"
   width="1000"
   height="1000"
   viewBox="0 0 264.58333 264.58333"
   version="1.1"
   id="svg8">
  <defs
     id="defs2" />
  <metadata
     id="metadata5">
    <rdf:RDF>
      <cc:Work
         rdf:about="">
        <dc:format>image/svg+xml</dc:format>
        <dc:type
           rdf:resource="http://purl.org/dc/dcmitype/StillImage" />
        <dc:title></dc:title>
      </cc:Work>
    </rdf:RDF>
  </metadata>
  <g
     id="layer2"
     style="display:none">
    <rect
       style="fill:#ffffff;stroke-width:0.440972"
       id="rect11"
       width="264.58334"
       height="264.58334"
       x="0"
       y="0" />
  </g>
  <g
     id="layer1">
    <g
       id="g907"
       transform="matrix(1.0566154,0,0,1.0566154,-59.68776,-28.68683)">
      <circle
         style="fill:#fed949;fill-opacity:1;stroke:none;stroke-width:6.43786;stroke-linecap:round;stroke-dashoffset:2"
         id="circle839"
         cx="106.57088"
         cy="77.231033"
         r="50.081295" />
      <path
         id="path837"
         style="fill:#e4af27;fill-opacity:1;stroke:none;stroke-width:5.29167;stroke-linecap:round;stroke-dashoffset:2"
         d="m 106.57036,36.066106 a 41.164832,41.164832 0 0 0 -41.164412,41.164928 41.164832,41.164832 0 0 0 41.164932,41.164926 41.164832,41.164832 0 0 0 41.16493,-41.164926 41.164832,41.164832 0 0 0 -41.16493,-41.164928 41.164832,41.164832 0 0 1 -5.2e-4,0 z m 10.95179,21.287589 c 3.96818,-2.49e-4 7.93689,1.506802 10.95178,4.52169 6.02979,6.029782 6.02979,15.873785 0,21.90357 -0.4685,0.46853 -0.96284,0.896718 -1.47381,1.292429 -0.12406,0.241559 -0.28527,0.466651 -0.48421,0.665591 l -17.98598,17.986495 c -1.05798,1.05798 -2.8596,1.05799 -3.91759,0 L 86.627394,85.73801 c -0.199083,-0.199084 -0.361082,-0.424802 -0.485243,-0.666626 -0.511141,-0.39579 -1.005158,-0.823256 -1.473811,-1.291913 -6.029778,-6.029775 -6.02978,-15.874304 0,-21.904086 v 10e-4 c 6.02978,-6.030036 15.87276,-6.02874 21.90254,10e-4 v -5.19e-4 -5.16e-4 c 3.01489,-3.014734 6.98309,-4.522499 10.95127,-4.522721 z" />
    </g>
    <path
       id="path940"
       style="fill:none;stroke:#e4af27;stroke-width:4;stroke-linecap:round;stroke-linejoin:miter;stroke-miterlimit:4;stroke-dasharray:none;stroke-opacity:1"
       d="m 200,5 v 25 z m 0,365 v 25 z M 169.49528,7.4007736 173.40614,32.092982 Z m 57.09858,360.5062464 3.91086,24.69221 z m -86.85217,-353.363041 7.72542,23.776413 z m 112.7912,347.135631 7.72542,23.77641 z M 111.47185,26.253728 122.82162,48.528891 Z m 165.70653,325.217382 11.34977,22.27516 z M 85.381876,42.241686 100.07651,62.467111 Z M 299.92349,337.53289 314.61812,357.75831 Z M 62.114178,62.114178 79.791847,79.791847 Z M 320.20815,320.20815 337.88582,337.88582 Z M 42.241686,85.381876 62.467111,100.07651 Z M 337.53289,299.92349 357.75831,314.61812 Z M 26.253728,111.47185 48.528891,122.82162 Z m 325.217382,165.70653 22.27516,11.34977 z M 14.543979,139.74169 l 23.776413,7.72542 z m 347.135631,112.7912 23.77641,7.72542 z M 7.4007736,169.49528 32.092982,173.40614 Z m 360.5062464,57.09858 24.69221,3.91086 z M 5,200 h 25 z m 365,0 h 25 z M 7.4007736,230.50472 32.092982,226.59386 Z m 360.5062464,-57.09858 24.69221,-3.91086 z m -353.363041,86.85217 23.776413,-7.72542 z m 347.135631,-112.7912 23.77641,-7.72542 z M 26.253728,288.52815 48.528891,277.17838 Z M 351.47111,122.82162 373.74627,111.47185 Z M 42.241686,314.61812 62.467111,299.92349 Z M 337.53289,100.07651 357.75831,85.381876 Z M 62.114178,337.88582 79.791847,320.20815 Z M 320.20815,79.791847 337.88582,62.114178 Z M 85.381876,357.75831 100.07651,337.53289 Z M 299.92349,62.467111 314.61812,42.241686 Z M 111.47185,373.74627 122.82162,351.47111 Z M 277.17838,48.528891 288.52815,26.253728 Z m -137.43669,336.927129 7.72542,-23.77641 z m 112.7912,-347.135628 7.72542,-23.776413 z m -83.03761,354.278838 3.91086,-24.69221 z M 226.59386,32.092982 230.50472,7.4007736 Z M 200,395 V 370 Z M 200,30 V 5 Z m 30.50472,362.59923 -3.91086,-24.69221 z M 173.40614,32.092982 169.49528,7.4007736 Z m 86.85217,353.363038 -7.72542,-23.77641 z M 147.46711,38.320392 139.74169,14.543979 Z M 288.52815,373.74627 277.17838,351.47111 Z M 122.82162,48.528891 111.47185,26.253728 Z M 314.61812,357.75831 299.92349,337.53289 Z M 100.07651,62.467111 85.381876,42.241686 Z M 337.88582,337.88582 320.20815,320.20815 Z M 79.791847,79.791847 62.114178,62.114178 Z M 357.75831,314.61812 337.53289,299.92349 Z M 62.467111,100.07651 42.241686,85.381876 Z M 373.74627,288.52815 351.47111,277.17838 Z M 48.528891,122.82162 26.253728,111.47185 Z M 385.45602,260.25831 361.67961,252.53289 Z M 38.320392,147.46711 14.543979,139.74169 Z m 354.278838,83.03761 -24.69221,-3.91086 z M 32.092982,173.40614 7.4007736,169.49528 Z M 395,200 H 370 Z M 30,200 H 5 Z m 362.59923,-30.50472 -24.69221,3.91086 z M 32.092982,226.59386 7.4007736,230.50472 Z m 353.363038,-86.85217 -23.77641,7.72542 z M 38.320392,252.53289 14.543979,260.25831 Z M 373.74627,111.47185 351.47111,122.82162 Z M 48.528891,277.17838 26.253728,288.52815 Z M 357.75831,85.381876 337.53289,100.07651 Z M 62.467111,299.92349 42.241686,314.61812 Z M 337.88582,62.114178 320.20815,79.791847 Z M 79.791847,320.20815 62.114178,337.88582 Z M 314.61812,42.241686 299.92349,62.467111 Z M 100.07651,337.53289 85.381876,357.75831 Z M 288.52815,26.253728 277.17838,48.528891 Z M 122.82162,351.47111 111.47185,373.74627 Z M 260.25831,14.543979 252.53289,38.320392 Z m -112.7912,347.135631 -7.72542,23.77641 z M 230.50472,7.4007736 226.59386,32.092982 Z m -57.09858,360.5062464 -3.91086,24.69221 z"
       transform="scale(0.26458333)" />
  </g>
</svg>
